<svg xmlns="http://www.w3.org/2000/svg" width="425.15" height="425.21" viewBox="0 0 425.15 425.21">
  <path id="DOOD-logo-mark-orange" d="M422.36,579.02l-68,68L486.87,779.53l68-68a137.452,137.452,0,0,0,12.07-13.84A137.506,137.506,0,0,0,579,711.53l68,68L779.51,647.02l-68-68a137.094,137.094,0,0,0-13.88-12.1,136.987,136.987,0,0,0,13.88-12.09l68-68L647,354.32l-68,68a136.359,136.359,0,0,0-12.07,13.84,136.412,136.412,0,0,0-12.06-13.84l-68-68L354.36,486.83l68,68a137.091,137.091,0,0,0,13.88,12.1A136.987,136.987,0,0,0,422.36,579.02ZM564.31,439.7c-20.44,28.75-27.99,63.51-18.13,93.64a20.546,20.546,0,0,1-18.45-5.92c3.41,3.41,5.79,11.51,5.3,18.72-30.01-9.65-64.62-2.14-93.25,18.18a85,85,0,0,1-14.97-11.94l-41.14-41.14,49.15-49.15c5.36-5.36,19.56-10.04,30.06.46-5.36-5.36-8.2-22.31-1.35-29.17l.87-.87,48.86-48.86,41.14,41.14a84.966,84.966,0,0,1,11.91,14.92ZM508.93,566.93c-21.13,9.86-43.83,11.24-64.82,0C465.1,555.69,487.8,557.06,508.93,566.93Zm58-122.91c11.28,21.03,9.9,43.77,0,64.94C557.03,487.79,555.65,465.05,566.93,444.02ZM694.08,564.31c-28.73-20.41-63.47-27.95-93.58-18.1a20.582,20.582,0,0,1,5.91-18.51c-3.4,3.4-11.47,5.78-18.67,5.3,9.66-30.03,2.14-64.66-18.2-93.3a84.971,84.971,0,0,1,11.91-14.92l41.14-41.14,49.15,49.15c5.36,5.36,10.04,19.56-.46,30.06,5.36-5.36,22.31-8.2,29.17-1.35l.87.87,48.86,48.86-41.14,41.14a84.416,84.416,0,0,1-14.96,11.93Zm-4.33,2.62c-20.99,11.24-43.69,9.87-64.82,0C646.06,557.07,668.76,555.69,689.75,566.93ZM569.54,694.16c20.44-28.74,27.99-63.51,18.13-93.63a20.546,20.546,0,0,1,18.45,5.92c-3.41-3.41-5.79-11.51-5.3-18.72,30.01,9.65,64.62,2.14,93.25-18.17a84.543,84.543,0,0,1,14.97,11.94l41.14,41.14-49.15,49.15c-5.36,5.36-19.56,10.04-30.06-.46,5.36,5.36,8.2,22.31,1.35,29.17l-.87.87-48.86,48.86-41.14-41.14a84.967,84.967,0,0,1-11.91-14.92Zm-2.61-4.32c-11.28-21.03-9.9-43.77,0-64.94C576.83,646.07,578.21,668.81,566.93,689.84ZM383.67,622.62l41.14-41.14a84.417,84.417,0,0,1,14.96-11.93c28.73,20.41,63.47,27.95,93.58,18.1a20.582,20.582,0,0,1-5.91,18.51c3.4-3.4,11.47-5.78,18.67-5.3-9.66,30.03-2.14,64.66,18.2,93.3a84.513,84.513,0,0,1-11.91,14.92l-41.14,41.14-49.15-49.15c-5.36-5.36-10.04-19.56.46-30.06-5.36,5.36-22.31,8.2-29.17,1.35l-.87-.87-48.86-48.86Z" transform="translate(-354.36 -354.32)"/>
</svg>
